<svg width="474" height="20" viewBox="0 0 474 20" fill="none" xmlns="http://www.w3.org/2000/svg">
<path d="M10.0558 3.53C8.92908 3.53 7.89775 3.79867 6.96175 4.336C6.04308 4.856 5.31508 5.61 4.77775 6.598C4.24042 7.586 3.97175 8.74733 3.97175 10.082C3.97175 11.3473 4.23175 12.474 4.75175 13.462C5.28908 14.4327 6.02575 15.1953 6.96175 15.75C7.89775 16.2873 8.95508 16.556 10.1338 16.556C12.1098 16.556 13.7651 16.0707 15.0998 15.1V12.188H9.84775V9.614H18.1938V16.582C17.2751 17.3967 16.1051 18.064 14.6838 18.584C13.2798 19.104 11.7631 19.364 10.1338 19.364C8.19242 19.364 6.47642 18.9653 4.98575 18.168C3.51242 17.3707 2.37708 16.27 1.57975 14.866C0.782417 13.4447 0.38375 11.85 0.38375 10.082C0.38375 8.34867 0.77375 6.78 1.55375 5.376C2.35108 3.95467 3.42575 2.83667 4.77775 2.022C6.12975 1.20733 7.61175 0.799999 9.22375 0.799999C10.4371 0.799999 11.5464 0.999332 12.5518 1.398C13.5571 1.77933 14.4324 2.32533 15.1778 3.036V1.164H18.1938V6.91L15.9838 7.066C15.3944 6.04333 14.5971 5.20267 13.5918 4.544C12.6038 3.868 11.4251 3.53 10.0558 3.53ZM30.4674 19.338C28.6647 19.338 27.0354 18.9393 25.5794 18.142C24.1407 17.3273 23.0054 16.218 22.1734 14.814C21.3587 13.41 20.9514 11.8327 20.9514 10.082C20.9514 8.33133 21.3587 6.754 22.1734 5.35C23.0054 3.92867 24.1494 2.81933 25.6054 2.022C27.0614 1.20733 28.682 0.799999 30.4674 0.799999C32.2354 0.799999 33.8387 1.20733 35.2774 2.022C36.7334 2.81933 37.8687 3.92867 38.6834 5.35C39.5154 6.754 39.9314 8.33133 39.9314 10.082C39.9314 11.8153 39.5154 13.3927 38.6834 14.814C37.8687 16.218 36.7334 17.3273 35.2774 18.142C33.8387 18.9393 32.2354 19.338 30.4674 19.338ZM30.4674 16.53C31.6114 16.53 32.6254 16.2527 33.5094 15.698C34.4107 15.126 35.104 14.346 35.5894 13.358C36.0747 12.37 36.3174 11.278 36.3174 10.082C36.3174 8.86867 36.0747 7.768 35.5894 6.78C35.104 5.792 34.4194 5.02067 33.5354 4.466C32.6514 3.894 31.6287 3.608 30.4674 3.608C29.2714 3.608 28.2227 3.894 27.3214 4.466C26.4374 5.038 25.7527 5.818 25.2674 6.806C24.782 7.77667 24.5394 8.86867 24.5394 10.082C24.5394 11.3127 24.782 12.4133 25.2674 13.384C25.7527 14.3547 26.4374 15.126 27.3214 15.698C28.2227 16.2527 29.2714 16.53 30.4674 16.53ZM51.7701 19.338C49.9674 19.338 48.3381 18.9393 46.8821 18.142C45.4434 17.3273 44.3081 16.218 43.4761 14.814C42.6614 13.41 42.2541 11.8327 42.2541 10.082C42.2541 8.33133 42.6614 6.754 43.4761 5.35C44.3081 3.92867 45.4521 2.81933 46.9081 2.022C48.3641 1.20733 49.9848 0.799999 51.7701 0.799999C53.5381 0.799999 55.1414 1.20733 56.5801 2.022C58.0361 2.81933 59.1714 3.92867 59.9861 5.35C60.8181 6.754 61.2341 8.33133 61.2341 10.082C61.2341 11.8153 60.8181 13.3927 59.9861 14.814C59.1714 16.218 58.0361 17.3273 56.5801 18.142C55.1414 18.9393 53.5381 19.338 51.7701 19.338ZM51.7701 16.53C52.9141 16.53 53.9281 16.2527 54.8121 15.698C55.7134 15.126 56.4068 14.346 56.8921 13.358C57.3774 12.37 57.6201 11.278 57.6201 10.082C57.6201 8.86867 57.3774 7.768 56.8921 6.78C56.4068 5.792 55.7221 5.02067 54.8381 4.466C53.9541 3.894 52.9314 3.608 51.7701 3.608C50.5741 3.608 49.5254 3.894 48.6241 4.466C47.7401 5.038 47.0554 5.818 46.5701 6.806C46.0848 7.77667 45.8421 8.86867 45.8421 10.082C45.8421 11.3127 46.0848 12.4133 46.5701 13.384C47.0554 14.3547 47.7401 15.126 48.6241 15.698C49.5254 16.2527 50.5741 16.53 51.7701 16.53ZM72.0619 1.164C73.8819 1.164 75.5806 1.49333 77.1579 2.152C78.7526 2.79333 80.0352 3.78133 81.0059 5.116C81.9939 6.45067 82.4879 8.106 82.4879 10.082C82.4879 12.0407 81.9939 13.696 81.0059 15.048C80.0352 16.3827 78.7526 17.3793 77.1579 18.038C75.5806 18.6793 73.8819 19 72.0619 19H63.2479V16.27H66.3679V3.894H63.2479V1.164H72.0619ZM71.6979 16.27C73.7086 16.27 75.4072 15.802 76.7939 14.866C78.1979 13.93 78.8999 12.3353 78.8999 10.082C78.8999 7.82867 78.1979 6.234 76.7939 5.298C75.4072 4.362 73.7086 3.894 71.6979 3.894H69.8259V16.27H71.6979ZM109.299 12.162V19H92.2694V16.27H95.3894V3.894H92.2694V1.164H101.941V3.894H98.8214V16.27H106.049V12.162H109.299ZM131.959 16.27V19H123.145V16.27H125.875L124.575 12.89H117.477L116.177 16.27H119.167V19H110.483V16.27H112.927L118.205 3.868H115.969V1.164H126.395V3.868H124.133L129.463 16.27H131.959ZM123.639 10.446L121.091 3.868H120.961L118.413 10.446H123.639ZM156.134 3.894H153.118V19.156L151.324 19.182L139.442 5.87V16.27H142.51V19H133.072V16.27H136.192V3.894H133.072V1.164H139.442L149.946 13.228V3.894H146.826V1.164H156.134V3.894ZM166.337 1.164C168.157 1.164 169.856 1.49333 171.433 2.152C173.028 2.79333 174.311 3.78133 175.281 5.116C176.269 6.45067 176.763 8.106 176.763 10.082C176.763 12.0407 176.269 13.696 175.281 15.048C174.311 16.3827 173.028 17.3793 171.433 18.038C169.856 18.6793 168.157 19 166.337 19H157.523V16.27H160.643V3.894H157.523V1.164H166.337ZM165.973 16.27C167.984 16.27 169.683 15.802 171.069 14.866C172.473 13.93 173.175 12.3353 173.175 10.082C173.175 7.82867 172.473 6.234 171.069 5.298C169.683 4.362 167.984 3.894 165.973 3.894H164.101V16.27H165.973ZM204.381 14.97C203.462 16.322 202.318 17.388 200.949 18.168C199.597 18.948 198.019 19.338 196.217 19.338C194.466 19.338 192.863 18.9393 191.407 18.142C189.968 17.3447 188.824 16.244 187.975 14.84C187.143 13.436 186.727 11.8673 186.727 10.134C186.727 8.33133 187.125 6.71933 187.923 5.298C188.72 3.87667 189.786 2.776 191.121 1.996C192.473 1.19867 193.929 0.799999 195.489 0.799999C197.725 0.799999 199.536 1.54533 200.923 3.036V1.164H204.017V7.17L201.781 7.378C201.243 6.19933 200.498 5.26333 199.545 4.57C198.591 3.87667 197.413 3.53 196.009 3.53C195.021 3.53 194.085 3.79867 193.201 4.336C192.334 4.856 191.632 5.61867 191.095 6.624C190.575 7.612 190.315 8.76467 190.315 10.082C190.315 11.2953 190.575 12.396 191.095 13.384C191.615 14.3547 192.325 15.126 193.227 15.698C194.128 16.2527 195.125 16.53 196.217 16.53C197.569 16.53 198.704 16.244 199.623 15.672C200.559 15.0827 201.399 14.242 202.145 13.15L204.381 14.97ZM215.743 19.338C213.94 19.338 212.311 18.9393 210.855 18.142C209.416 17.3273 208.281 16.218 207.449 14.814C206.634 13.41 206.227 11.8327 206.227 10.082C206.227 8.33133 206.634 6.754 207.449 5.35C208.281 3.92867 209.425 2.81933 210.881 2.022C212.337 1.20733 213.957 0.799999 215.743 0.799999C217.511 0.799999 219.114 1.20733 220.553 2.022C222.009 2.81933 223.144 3.92867 223.959 5.35C224.791 6.754 225.207 8.33133 225.207 10.082C225.207 11.8153 224.791 13.3927 223.959 14.814C223.144 16.218 222.009 17.3273 220.553 18.142C219.114 18.9393 217.511 19.338 215.743 19.338ZM215.743 16.53C216.887 16.53 217.901 16.2527 218.785 15.698C219.686 15.126 220.379 14.346 220.865 13.358C221.35 12.37 221.593 11.278 221.593 10.082C221.593 8.86867 221.35 7.768 220.865 6.78C220.379 5.792 219.695 5.02067 218.811 4.466C217.927 3.894 216.904 3.608 215.743 3.608C214.547 3.608 213.498 3.894 212.597 4.466C211.713 5.038 211.028 5.818 210.543 6.806C210.057 7.77667 209.815 8.86867 209.815 10.082C209.815 11.3127 210.057 12.4133 210.543 13.384C211.028 14.3547 211.713 15.126 212.597 15.698C213.498 16.2527 214.547 16.53 215.743 16.53ZM244.641 1.164V7.534H241.599V3.894H233.721V9.094H236.971V6.858H239.545V13.8H236.971V11.564H233.721V16.27H237.075V19H227.221V16.27H230.341V3.894H227.221V1.164H244.641ZM263.861 1.164V7.534H260.819V3.894H252.941V9.094H256.191V6.858H258.765V13.8H256.191V11.564H252.941V16.27H256.295V19H246.441V16.27H249.561V3.894H246.441V1.164H263.861ZM280.664 7.352V3.894H272.136V8.912H275.568V6.676H278.142V13.618H275.568V11.382H272.136V16.27H280.664V12.812H283.68V19H265.662V16.27H268.756V3.894H265.662V1.164H283.68V7.352H280.664ZM301.408 7.352V3.894H292.88V8.912H296.312V6.676H298.886V13.618H296.312V11.382H292.88V16.27H301.408V12.812H304.424V19H286.406V16.27H289.5V3.894H286.406V1.164H304.424V7.352H301.408ZM335.304 17.492C334.818 18.0467 334.272 18.4973 333.666 18.844C333.059 19.1907 332.314 19.364 331.43 19.364C329.835 19.364 328.5 18.8093 327.426 17.7C326.368 16.5733 325.545 14.8313 324.956 12.474L324.696 11.642H321.498V16.296H324.54V19H314.92V16.27H318.04V3.894H314.92V1.164H325.424C327.521 1.164 329.185 1.632 330.416 2.568C331.664 3.48667 332.288 4.76067 332.288 6.39C332.288 7.742 331.889 8.85133 331.092 9.718C330.312 10.5847 329.194 11.1653 327.738 11.46L328.024 12.266C328.492 13.6873 329.02 14.7013 329.61 15.308C330.216 15.8973 330.892 16.192 331.638 16.192C332.418 16.192 333.102 15.88 333.692 15.256L335.304 17.492ZM321.498 9.094H325.528C326.446 9.094 327.235 8.86867 327.894 8.418C328.552 7.95 328.882 7.274 328.882 6.39C328.882 5.57533 328.561 4.96 327.92 4.544C327.278 4.11067 326.481 3.894 325.528 3.894H321.498V9.094ZM345.337 19.338C343.534 19.338 341.905 18.9393 340.449 18.142C339.01 17.3273 337.875 16.218 337.043 14.814C336.228 13.41 335.821 11.8327 335.821 10.082C335.821 8.33133 336.228 6.754 337.043 5.35C337.875 3.92867 339.019 2.81933 340.475 2.022C341.931 1.20733 343.551 0.799999 345.337 0.799999C347.105 0.799999 348.708 1.20733 350.147 2.022C351.603 2.81933 352.738 3.92867 353.553 5.35C354.385 6.754 354.801 8.33133 354.801 10.082C354.801 11.8153 354.385 13.3927 353.553 14.814C352.738 16.218 351.603 17.3273 350.147 18.142C348.708 18.9393 347.105 19.338 345.337 19.338ZM345.337 16.53C346.481 16.53 347.495 16.2527 348.379 15.698C349.28 15.126 349.973 14.346 350.459 13.358C350.944 12.37 351.187 11.278 351.187 10.082C351.187 8.86867 350.944 7.768 350.459 6.78C349.973 5.792 349.289 5.02067 348.405 4.466C347.521 3.894 346.498 3.608 345.337 3.608C344.141 3.608 343.092 3.894 342.191 4.466C341.307 5.038 340.622 5.818 340.137 6.806C339.651 7.77667 339.409 8.86867 339.409 10.082C339.409 11.3127 339.651 12.4133 340.137 13.384C340.622 14.3547 341.307 15.126 342.191 15.698C343.092 16.2527 344.141 16.53 345.337 16.53ZM376.903 16.27V19H368.089V16.27H370.819L369.519 12.89H362.421L361.121 16.27H364.111V19H355.427V16.27H357.871L363.149 3.868H360.913V1.164H371.339V3.868H369.077L374.407 16.27H376.903ZM368.583 10.446L366.035 3.868H365.905L363.357 10.446H368.583ZM386.816 8.574C389.104 9.21533 390.854 9.98667 392.068 10.888C393.298 11.772 393.914 12.9507 393.914 14.424C393.914 15.4293 393.654 16.3047 393.134 17.05C392.614 17.778 391.886 18.3413 390.95 18.74C390.031 19.1387 388.991 19.338 387.83 19.338C385.611 19.338 383.479 18.428 381.434 16.608V18.974H378.418V12.734L380.472 12.604C381.39 13.8173 382.508 14.788 383.826 15.516C385.16 16.244 386.426 16.608 387.622 16.608C388.419 16.608 389.069 16.452 389.572 16.14C390.074 15.8107 390.326 15.3513 390.326 14.762C390.326 14.1033 389.892 13.5227 389.026 13.02C388.159 12.5173 386.686 11.9887 384.606 11.434C382.491 10.862 380.94 10.1167 379.952 9.198C378.981 8.262 378.496 7.10067 378.496 5.714C378.496 4.74333 378.764 3.88533 379.302 3.14C379.856 2.39467 380.576 1.82267 381.46 1.424C382.361 1.008 383.332 0.799999 384.372 0.799999C386.66 0.799999 388.523 1.57133 389.962 3.114V1.164H392.978V7.274L391.028 7.378C390.386 6.13 389.546 5.17667 388.506 4.518C387.466 3.85933 386.365 3.53 385.204 3.53C384.285 3.53 383.531 3.712 382.942 4.076C382.37 4.44 382.084 4.934 382.084 5.558C382.084 6.19933 382.439 6.74533 383.15 7.196C383.878 7.64667 385.1 8.106 386.816 8.574ZM414.253 1.164V7.534H411.237V3.894H406.661V16.27H409.781V19H400.083V16.27H403.203V3.894H398.575V7.534H395.559V1.164H414.253ZM431.027 7.352V3.894H422.499V8.912H425.931V6.676H428.505V13.618H425.931V11.382H422.499V16.27H431.027V12.812H434.043V19H416.025V16.27H419.119V3.894H416.025V1.164H434.043V7.352H431.027ZM457.153 17.492C456.668 18.0467 456.122 18.4973 455.515 18.844C454.909 19.1907 454.163 19.364 453.279 19.364C451.685 19.364 450.35 18.8093 449.275 17.7C448.218 16.5733 447.395 14.8313 446.805 12.474L446.545 11.642H443.347V16.296H446.389V19H436.769V16.27H439.889V3.894H436.769V1.164H447.273C449.371 1.164 451.035 1.632 452.265 2.568C453.513 3.48667 454.137 4.76067 454.137 6.39C454.137 7.742 453.739 8.85133 452.941 9.718C452.161 10.5847 451.043 11.1653 449.587 11.46L449.873 12.266C450.341 13.6873 450.87 14.7013 451.459 15.308C452.066 15.8973 452.742 16.192 453.487 16.192C454.267 16.192 454.952 15.88 455.541 15.256L457.153 17.492ZM443.347 9.094H447.377C448.296 9.094 449.085 8.86867 449.743 8.418C450.402 7.95 450.731 7.274 450.731 6.39C450.731 5.57533 450.411 4.96 449.769 4.544C449.128 4.11067 448.331 3.894 447.377 3.894H443.347V9.094ZM466.415 8.574C468.703 9.21533 470.454 9.98667 471.667 10.888C472.898 11.772 473.513 12.9507 473.513 14.424C473.513 15.4293 473.253 16.3047 472.733 17.05C472.213 17.778 471.485 18.3413 470.549 18.74C469.631 19.1387 468.591 19.338 467.429 19.338C465.211 19.338 463.079 18.428 461.033 16.608V18.974H458.017V12.734L460.071 12.604C460.99 13.8173 462.108 14.788 463.425 15.516C464.76 16.244 466.025 16.608 467.221 16.608C468.019 16.608 468.669 16.452 469.171 16.14C469.674 15.8107 469.925 15.3513 469.925 14.762C469.925 14.1033 469.492 13.5227 468.625 13.02C467.759 12.5173 466.285 11.9887 464.205 11.434C462.091 10.862 460.539 10.1167 459.551 9.198C458.581 8.262 458.095 7.10067 458.095 5.714C458.095 4.74333 458.364 3.88533 458.901 3.14C459.456 2.39467 460.175 1.82267 461.059 1.424C461.961 1.008 462.931 0.799999 463.971 0.799999C466.259 0.799999 468.123 1.57133 469.561 3.114V1.164H472.577V7.274L470.627 7.378C469.986 6.13 469.145 5.17667 468.105 4.518C467.065 3.85933 465.965 3.53 464.803 3.53C463.885 3.53 463.131 3.712 462.541 4.076C461.969 4.44 461.683 4.934 461.683 5.558C461.683 6.19933 462.039 6.74533 462.749 7.196C463.477 7.64667 464.699 8.106 466.415 8.574Z" fill="#222229"/>
</svg>
