<svg width="487" height="20" viewBox="0 0 487 20" fill="none" xmlns="http://www.w3.org/2000/svg">
<path d="M18.0771 14.97C17.1584 16.322 16.0144 17.388 14.6451 18.168C13.2931 18.948 11.7157 19.338 9.91305 19.338C8.16239 19.338 6.55906 18.9393 5.10306 18.142C3.66439 17.3447 2.52039 16.244 1.67105 14.84C0.839055 13.436 0.423055 11.8673 0.423055 10.134C0.423055 8.33133 0.821721 6.71933 1.61905 5.298C2.41639 3.87667 3.48239 2.776 4.81705 1.996C6.16905 1.19867 7.62505 0.799999 9.18505 0.799999C11.4211 0.799999 13.2324 1.54533 14.6191 3.036V1.164H17.7131V7.17L15.4771 7.378C14.9397 6.19933 14.1944 5.26333 13.2411 4.57C12.2877 3.87667 11.1091 3.53 9.70506 3.53C8.71705 3.53 7.78105 3.79867 6.89705 4.336C6.03039 4.856 5.32839 5.61867 4.79105 6.624C4.27105 7.612 4.01105 8.76467 4.01105 10.082C4.01105 11.2953 4.27105 12.396 4.79105 13.384C5.31105 14.3547 6.02172 15.126 6.92306 15.698C7.82439 16.2527 8.82105 16.53 9.91305 16.53C11.2651 16.53 12.4004 16.244 13.3191 15.672C14.2551 15.0827 15.0957 14.242 15.8411 13.15L18.0771 14.97ZM40.3028 17.492C39.8175 18.0467 39.2715 18.4973 38.6648 18.844C38.0581 19.1907 37.3128 19.364 36.4288 19.364C34.8341 19.364 33.4995 18.8093 32.4248 17.7C31.3675 16.5733 30.5441 14.8313 29.9548 12.474L29.6948 11.642H26.4968V16.296H29.5388V19H19.9188V16.27H23.0388V3.894H19.9188V1.164H30.4228C32.5201 1.164 34.1841 1.632 35.4148 2.568C36.6628 3.48667 37.2868 4.76067 37.2868 6.39C37.2868 7.742 36.8881 8.85133 36.0908 9.718C35.3108 10.5847 34.1928 11.1653 32.7368 11.46L33.0228 12.266C33.4908 13.6873 34.0195 14.7013 34.6088 15.308C35.2155 15.8973 35.8915 16.192 36.6368 16.192C37.4168 16.192 38.1015 15.88 38.6908 15.256L40.3028 17.492ZM26.4968 9.094H30.5268C31.4455 9.094 32.2341 8.86867 32.8928 8.418C33.5515 7.95 33.8808 7.274 33.8808 6.39C33.8808 5.57533 33.5601 4.96 32.9188 4.544C32.2775 4.11067 31.4801 3.894 30.5268 3.894H26.4968V9.094ZM55.6395 7.352V3.894H47.1115V8.912H50.5435V6.676H53.1175V13.618H50.5435V11.382H47.1115V16.27H55.6395V12.812H58.6555V19H40.6375V16.27H43.7315V3.894H40.6375V1.164H58.6555V7.352H55.6395ZM81.724 16.27V19H72.91V16.27H75.64L74.34 12.89H67.242L65.942 16.27H68.932V19H60.248V16.27H62.692L67.97 3.868H65.734V1.164H76.16V3.868H73.898L79.228 16.27H81.724ZM73.404 10.446L70.856 3.868H70.726L68.178 10.446H73.404ZM106.731 3.894V16.27H109.851V19H100.439V16.27H103.351V9.978C103.351 8.886 103.498 7.47333 103.793 5.74L97.1888 19.104H95.3428L88.7908 5.896C89.0334 7.62933 89.1548 8.99 89.1548 9.978V16.27H92.0668V19H82.8368V16.27H85.9568V3.894H82.8368V1.164H89.7268L96.3828 14.45L102.909 1.164H109.851V3.894H106.731ZM137.261 14.97C136.342 16.322 135.198 17.388 133.829 18.168C132.477 18.948 130.899 19.338 129.097 19.338C127.346 19.338 125.743 18.9393 124.287 18.142C122.848 17.3447 121.704 16.244 120.855 14.84C120.023 13.436 119.607 11.8673 119.607 10.134C119.607 8.33133 120.005 6.71933 120.803 5.298C121.6 3.87667 122.666 2.776 124.001 1.996C125.353 1.19867 126.809 0.799999 128.369 0.799999C130.605 0.799999 132.416 1.54533 133.803 3.036V1.164H136.897V7.17L134.661 7.378C134.123 6.19933 133.378 5.26333 132.425 4.57C131.471 3.87667 130.293 3.53 128.889 3.53C127.901 3.53 126.965 3.79867 126.081 4.336C125.214 4.856 124.512 5.61867 123.975 6.624C123.455 7.612 123.195 8.76467 123.195 10.082C123.195 11.2953 123.455 12.396 123.975 13.384C124.495 14.3547 125.205 15.126 126.107 15.698C127.008 16.2527 128.005 16.53 129.097 16.53C130.449 16.53 131.584 16.244 132.503 15.672C133.439 15.0827 134.279 14.242 135.025 13.15L137.261 14.97ZM145.68 3.894V16.27H148.826V19H139.102V16.27H142.222V3.894H139.102V1.164H148.826V3.894H145.68ZM169.246 1.164V7.534H166.23V3.894H161.654V16.27H164.774V19H155.076V16.27H158.196V3.894H153.568V7.534H150.552V1.164H169.246ZM182.226 11.824V16.27H185.45V19H175.57V16.27H178.768V11.98L172.606 3.894H170.37V1.164H178.742V3.894H176.636L180.874 9.692L184.826 3.894H182.226V1.164H190.598V3.894H188.18L182.226 11.824ZM217.393 14.97C216.475 16.322 215.331 17.388 213.961 18.168C212.609 18.948 211.032 19.338 209.229 19.338C207.479 19.338 205.875 18.9393 204.419 18.142C202.981 17.3447 201.837 16.244 200.987 14.84C200.155 13.436 199.739 11.8673 199.739 10.134C199.739 8.33133 200.138 6.71933 200.935 5.298C201.733 3.87667 202.799 2.776 204.133 1.996C205.485 1.19867 206.941 0.799999 208.501 0.799999C210.737 0.799999 212.549 1.54533 213.935 3.036V1.164H217.029V7.17L214.793 7.378C214.256 6.19933 213.511 5.26333 212.557 4.57C211.604 3.87667 210.425 3.53 209.021 3.53C208.033 3.53 207.097 3.79867 206.213 4.336C205.347 4.856 204.645 5.61867 204.107 6.624C203.587 7.612 203.327 8.76467 203.327 10.082C203.327 11.2953 203.587 12.396 204.107 13.384C204.627 14.3547 205.338 15.126 206.239 15.698C207.141 16.2527 208.137 16.53 209.229 16.53C210.581 16.53 211.717 16.244 212.635 15.672C213.571 15.0827 214.412 14.242 215.157 13.15L217.393 14.97ZM228.755 19.338C226.953 19.338 225.323 18.9393 223.867 18.142C222.429 17.3273 221.293 16.218 220.461 14.814C219.647 13.41 219.239 11.8327 219.239 10.082C219.239 8.33133 219.647 6.754 220.461 5.35C221.293 3.92867 222.437 2.81933 223.893 2.022C225.349 1.20733 226.97 0.799999 228.755 0.799999C230.523 0.799999 232.127 1.20733 233.565 2.022C235.021 2.81933 236.157 3.92867 236.971 5.35C237.803 6.754 238.219 8.33133 238.219 10.082C238.219 11.8153 237.803 13.3927 236.971 14.814C236.157 16.218 235.021 17.3273 233.565 18.142C232.127 18.9393 230.523 19.338 228.755 19.338ZM228.755 16.53C229.899 16.53 230.913 16.2527 231.797 15.698C232.699 15.126 233.392 14.346 233.877 13.358C234.363 12.37 234.605 11.278 234.605 10.082C234.605 8.86867 234.363 7.768 233.877 6.78C233.392 5.792 232.707 5.02067 231.823 4.466C230.939 3.894 229.917 3.608 228.755 3.608C227.559 3.608 226.511 3.894 225.609 4.466C224.725 5.038 224.041 5.818 223.555 6.806C223.07 7.77667 222.827 8.86867 222.827 10.082C222.827 11.3127 223.07 12.4133 223.555 13.384C224.041 14.3547 224.725 15.126 225.609 15.698C226.511 16.2527 227.559 16.53 228.755 16.53ZM257.653 1.164V7.534H254.611V3.894H246.733V9.094H249.983V6.858H252.557V13.8H249.983V11.564H246.733V16.27H250.087V19H240.233V16.27H243.353V3.894H240.233V1.164H257.653ZM276.874 1.164V7.534H273.832V3.894H265.954V9.094H269.204V6.858H271.778V13.8H269.204V11.564H265.954V16.27H269.308V19H259.454V16.27H262.574V3.894H259.454V1.164H276.874ZM293.677 7.352V3.894H285.149V8.912H288.581V6.676H291.155V13.618H288.581V11.382H285.149V16.27H293.677V12.812H296.693V19H278.675V16.27H281.769V3.894H278.675V1.164H296.693V7.352H293.677ZM314.421 7.352V3.894H305.893V8.912H309.325V6.676H311.899V13.618H309.325V11.382H305.893V16.27H314.421V12.812H317.437V19H299.419V16.27H302.513V3.894H299.419V1.164H317.437V7.352H314.421ZM348.316 17.492C347.831 18.0467 347.285 18.4973 346.678 18.844C346.072 19.1907 345.326 19.364 344.442 19.364C342.848 19.364 341.513 18.8093 340.438 17.7C339.381 16.5733 338.558 14.8313 337.968 12.474L337.708 11.642H334.51V16.296H337.552V19H327.932V16.27H331.052V3.894H327.932V1.164H338.436C340.534 1.164 342.198 1.632 343.428 2.568C344.676 3.48667 345.3 4.76067 345.3 6.39C345.3 7.742 344.902 8.85133 344.104 9.718C343.324 10.5847 342.206 11.1653 340.75 11.46L341.036 12.266C341.504 13.6873 342.033 14.7013 342.622 15.308C343.229 15.8973 343.905 16.192 344.65 16.192C345.43 16.192 346.115 15.88 346.704 15.256L348.316 17.492ZM334.51 9.094H338.54C339.459 9.094 340.248 8.86867 340.906 8.418C341.565 7.95 341.894 7.274 341.894 6.39C341.894 5.57533 341.574 4.96 340.932 4.544C340.291 4.11067 339.494 3.894 338.54 3.894H334.51V9.094ZM358.349 19.338C356.547 19.338 354.917 18.9393 353.461 18.142C352.023 17.3273 350.887 16.218 350.055 14.814C349.241 13.41 348.833 11.8327 348.833 10.082C348.833 8.33133 349.241 6.754 350.055 5.35C350.887 3.92867 352.031 2.81933 353.487 2.022C354.943 1.20733 356.564 0.799999 358.349 0.799999C360.117 0.799999 361.721 1.20733 363.159 2.022C364.615 2.81933 365.751 3.92867 366.565 5.35C367.397 6.754 367.813 8.33133 367.813 10.082C367.813 11.8153 367.397 13.3927 366.565 14.814C365.751 16.218 364.615 17.3273 363.159 18.142C361.721 18.9393 360.117 19.338 358.349 19.338ZM358.349 16.53C359.493 16.53 360.507 16.2527 361.391 15.698C362.293 15.126 362.986 14.346 363.471 13.358C363.957 12.37 364.199 11.278 364.199 10.082C364.199 8.86867 363.957 7.768 363.471 6.78C362.986 5.792 362.301 5.02067 361.417 4.466C360.533 3.894 359.511 3.608 358.349 3.608C357.153 3.608 356.105 3.894 355.203 4.466C354.319 5.038 353.635 5.818 353.149 6.806C352.664 7.77667 352.421 8.86867 352.421 10.082C352.421 11.3127 352.664 12.4133 353.149 13.384C353.635 14.3547 354.319 15.126 355.203 15.698C356.105 16.2527 357.153 16.53 358.349 16.53ZM389.915 16.27V19H381.101V16.27H383.831L382.531 12.89H375.433L374.133 16.27H377.123V19H368.439V16.27H370.883L376.161 3.868H373.925V1.164H384.351V3.868H382.089L387.419 16.27H389.915ZM381.595 10.446L379.047 3.868H378.917L376.369 10.446H381.595ZM399.828 8.574C402.116 9.21533 403.867 9.98667 405.08 10.888C406.311 11.772 406.926 12.9507 406.926 14.424C406.926 15.4293 406.666 16.3047 406.146 17.05C405.626 17.778 404.898 18.3413 403.962 18.74C403.044 19.1387 402.004 19.338 400.842 19.338C398.624 19.338 396.492 18.428 394.446 16.608V18.974H391.43V12.734L393.484 12.604C394.403 13.8173 395.521 14.788 396.838 15.516C398.173 16.244 399.438 16.608 400.634 16.608C401.432 16.608 402.082 16.452 402.584 16.14C403.087 15.8107 403.338 15.3513 403.338 14.762C403.338 14.1033 402.905 13.5227 402.038 13.02C401.172 12.5173 399.698 11.9887 397.618 11.434C395.504 10.862 393.952 10.1167 392.964 9.198C391.994 8.262 391.508 7.10067 391.508 5.714C391.508 4.74333 391.777 3.88533 392.314 3.14C392.869 2.39467 393.588 1.82267 394.472 1.424C395.374 1.008 396.344 0.799999 397.384 0.799999C399.672 0.799999 401.536 1.57133 402.974 3.114V1.164H405.99V7.274L404.04 7.378C403.399 6.13 402.558 5.17667 401.518 4.518C400.478 3.85933 399.378 3.53 398.216 3.53C397.298 3.53 396.544 3.712 395.954 4.076C395.382 4.44 395.096 4.934 395.096 5.558C395.096 6.19933 395.452 6.74533 396.162 7.196C396.89 7.64667 398.112 8.106 399.828 8.574ZM427.265 1.164V7.534H424.249V3.894H419.673V16.27H422.793V19H413.095V16.27H416.215V3.894H411.587V7.534H408.571V1.164H427.265ZM444.04 7.352V3.894H435.512V8.912H438.944V6.676H441.518V13.618H438.944V11.382H435.512V16.27H444.04V12.812H447.056V19H429.038V16.27H432.132V3.894H429.038V1.164H447.056V7.352H444.04ZM470.166 17.492C469.681 18.0467 469.135 18.4973 468.528 18.844C467.921 19.1907 467.176 19.364 466.292 19.364C464.697 19.364 463.363 18.8093 462.288 17.7C461.231 16.5733 460.407 14.8313 459.818 12.474L459.558 11.642H456.36V16.296H459.402V19H449.782V16.27H452.902V3.894H449.782V1.164H460.286C462.383 1.164 464.047 1.632 465.278 2.568C466.526 3.48667 467.15 4.76067 467.15 6.39C467.15 7.742 466.751 8.85133 465.954 9.718C465.174 10.5847 464.056 11.1653 462.6 11.46L462.886 12.266C463.354 13.6873 463.883 14.7013 464.472 15.308C465.079 15.8973 465.755 16.192 466.5 16.192C467.28 16.192 467.965 15.88 468.554 15.256L470.166 17.492ZM456.36 9.094H460.39C461.309 9.094 462.097 8.86867 462.756 8.418C463.415 7.95 463.744 7.274 463.744 6.39C463.744 5.57533 463.423 4.96 462.782 4.544C462.141 4.11067 461.343 3.894 460.39 3.894H456.36V9.094ZM479.428 8.574C481.716 9.21533 483.467 9.98667 484.68 10.888C485.911 11.772 486.526 12.9507 486.526 14.424C486.526 15.4293 486.266 16.3047 485.746 17.05C485.226 17.778 484.498 18.3413 483.562 18.74C482.643 19.1387 481.603 19.338 480.442 19.338C478.223 19.338 476.091 18.428 474.046 16.608V18.974H471.03V12.734L473.084 12.604C474.003 13.8173 475.121 14.788 476.438 15.516C477.773 16.244 479.038 16.608 480.234 16.608C481.031 16.608 481.681 16.452 482.184 16.14C482.687 15.8107 482.938 15.3513 482.938 14.762C482.938 14.1033 482.505 13.5227 481.638 13.02C480.771 12.5173 479.298 11.9887 477.218 11.434C475.103 10.862 473.552 10.1167 472.564 9.198C471.593 8.262 471.108 7.10067 471.108 5.714C471.108 4.74333 471.377 3.88533 471.914 3.14C472.469 2.39467 473.188 1.82267 474.072 1.424C474.973 1.008 475.944 0.799999 476.984 0.799999C479.272 0.799999 481.135 1.57133 482.574 3.114V1.164H485.59V7.274L483.64 7.378C482.999 6.13 482.158 5.17667 481.118 4.518C480.078 3.85933 478.977 3.53 477.816 3.53C476.897 3.53 476.143 3.712 475.554 4.076C474.982 4.44 474.696 4.934 474.696 5.558C474.696 6.19933 475.051 6.74533 475.762 7.196C476.49 7.64667 477.712 8.106 479.428 8.574Z" fill="#222229"/>
</svg>
